<?xml version="1.0" standalone="no"?><!-- Generator: Gravit.io --><svg xmlns="http://www.w3.org/2000/svg" xmlns:xlink="http://www.w3.org/1999/xlink" style="isolation:isolate" viewBox="0 0 522.385 614.78" width="522.385" height="614.78"><defs><clipPath id="_clipPath_2FnU4gLgfV5Ceam5xeekszi2SpYNe6Ze"><rect width="522.385" height="614.78"/></clipPath></defs><g clip-path="url(#_clipPath_2FnU4gLgfV5Ceam5xeekszi2SpYNe6Ze)"><circle vector-effect="non-scaling-stroke" cx="257.29659394105005" cy="358.703051134368" r="229" fill="rgb(232,232,232)" fill-opacity="0.3"/><path d=" M 492.394 36.382 C 494.345 35.485 496.729 35.993 498.128 37.746 L 499.602 39.595 C 501.248 41.658 500.909 44.669 498.846 46.314 L 477.111 63.653 C 478.713 63.448 480.381 64.059 481.461 65.413 L 482.936 67.262 C 483.878 68.443 484.17 69.935 483.859 71.303 L 509.742 50.657 C 511.805 49.011 514.815 49.35 516.461 51.413 L 517.936 53.262 C 519.581 55.325 519.242 58.335 517.18 59.981 L 511.548 64.473 C 513.418 64.404 515.295 65.191 516.551 66.765 L 521.054 72.41 C 523.154 75.043 522.722 78.885 520.089 80.985 L 505.824 92.365 C 507.511 92.044 509.316 92.645 510.461 94.08 L 511.936 95.928 C 513.581 97.991 513.242 101.002 511.18 102.648 L 483.151 125.006 C 474.06 144.978 453.648 158.908 429.95 158.908 C 397.805 158.908 371.707 133.275 371.707 101.703 C 371.707 75.29 389.972 53.034 414.763 46.466 L 461.742 8.99 C 463.805 7.345 466.815 7.683 468.461 9.746 L 469.936 11.595 C 471.581 13.658 471.242 16.669 469.18 18.314 L 459.928 25.694 C 461.02 25.896 462.048 26.477 462.794 27.413 L 464.269 29.262 C 465.505 30.811 465.622 32.896 464.728 34.535 L 506.027 1.591 C 509.174 -0.919 513.767 -0.402 516.277 2.744 L 518.839 5.956 C 521.35 9.103 520.833 13.696 517.686 16.207 L 492.394 36.382 Z " fill="rgb(255,153,0)"/><g><circle vector-effect="non-scaling-stroke" cx="253.41199999999972" cy="353.78" r="184.99999999999994" fill="rgb(235,235,235)"/><clipPath id="_clipPath_EKYFQ0EUzJcwlAXzdzIzipxTV7UwSBPT"><circle vector-effect="non-scaling-stroke" cx="253.41199999999972" cy="353.78" r="184.99999999999994" fill="rgb(255,255,255)"/></clipPath><g clip-path="url(#_clipPath_EKYFQ0EUzJcwlAXzdzIzipxTV7UwSBPT)"><g><g opacity="0.07"><path d=" M 8.359 405.366 L 182.622 288.182 C 191.782 282.022 204.22 284.458 210.379 293.618 L 210.379 293.618 C 216.539 302.778 214.103 315.216 204.943 321.375 L 30.68 438.56 C 21.52 444.719 9.082 442.283 2.923 433.123 L 2.923 433.123 C -3.237 423.964 -0.801 411.526 8.359 405.366 Z " fill="rgb(0,0,0)"/></g><g opacity="0.07"><path d=" M 102.62 439.366 L 276.883 322.182 C 286.043 316.022 298.481 318.458 304.64 327.618 L 304.64 327.618 C 310.8 336.778 308.364 349.216 299.204 355.375 L 124.941 472.56 C 115.781 478.719 103.343 476.283 97.184 467.123 L 97.184 467.123 C 91.024 457.964 93.46 445.526 102.62 439.366 Z " fill="rgb(0,0,0)"/></g><g opacity="0.07"><path d=" M 68.359 510.537 L 242.622 393.352 C 251.782 387.193 264.22 389.628 270.379 398.788 L 270.379 398.788 C 276.539 407.948 274.103 420.386 264.943 426.545 L 90.68 543.73 C 81.52 549.889 69.082 547.453 62.923 538.293 L 62.923 538.293 C 56.763 529.134 59.199 516.696 68.359 510.537 Z " fill="rgb(0,0,0)"/></g><g opacity="0.07"><path d=" M 102.62 536.366 L 276.883 419.182 C 286.043 413.022 298.481 415.458 304.64 424.618 L 304.64 424.618 C 310.8 433.778 308.364 446.216 299.204 452.375 L 124.941 569.56 C 115.781 575.719 103.343 573.283 97.184 564.123 L 97.184 564.123 C 91.024 554.964 93.46 542.526 102.62 536.366 Z " fill="rgb(0,0,0)"/></g><g opacity="0.07"><path d=" M 95.489 588.366 L 269.753 471.182 C 278.913 465.022 291.35 467.458 297.51 476.618 L 297.51 476.618 C 303.67 485.778 301.234 498.216 292.074 504.375 L 117.81 621.56 C 108.65 627.719 96.213 625.283 90.053 616.123 L 90.053 616.123 C 83.894 606.964 86.329 594.526 95.489 588.366 Z " fill="rgb(0,0,0)"/></g><g opacity="0.07"><path d=" M 155.489 598.127 L 329.753 480.943 C 338.913 474.783 351.35 477.219 357.51 486.379 L 357.51 486.379 C 363.67 495.539 361.234 507.976 352.074 514.136 L 177.81 631.32 C 168.65 637.48 156.213 635.044 150.053 625.884 L 150.053 625.884 C 143.894 616.724 146.329 604.287 155.489 598.127 Z " fill="rgb(0,0,0)"/></g><g opacity="0.07"><path d=" M -36.283 387.753 L 137.981 270.568 C 147.141 264.409 159.578 266.844 165.738 276.004 L 165.738 276.004 C 171.897 285.164 169.462 297.602 160.302 303.761 L -13.962 420.946 C -23.122 427.105 -35.559 424.669 -41.719 415.51 L -41.719 415.51 C -47.879 406.35 -45.443 393.912 -36.283 387.753 Z " fill="rgb(0,0,0)"/></g><g opacity="0.07"><path d=" M -13.962 324.366 L 160.302 207.182 C 169.462 201.022 181.899 203.458 188.059 212.618 L 188.059 212.618 C 194.218 221.778 191.782 234.216 182.622 240.375 L 8.359 357.56 C -0.801 363.719 -13.239 361.283 -19.398 352.123 L -19.398 352.123 C -25.558 342.964 -23.122 330.526 -13.962 324.366 Z " fill="rgb(0,0,0)"/></g><g opacity="0.07"><path d=" M 48.527 426.946 L 222.79 309.761 C 231.95 303.602 244.388 306.038 250.547 315.197 L 250.547 315.197 C 256.707 324.357 254.271 336.795 245.111 342.954 L 70.848 460.139 C 61.688 466.298 49.25 463.863 43.091 454.703 L 43.091 454.703 C 36.931 445.543 39.367 433.105 48.527 426.946 Z " fill="rgb(0,0,0)"/></g></g></g><path d=" M 192.53 475.012 C 158.51 450.385 133.205 414.457 122.114 372.76 C 121.714 372.772 121.314 372.78 120.912 372.78 C 104.355 372.78 90.912 359.337 90.912 342.78 C 90.912 327.789 101.931 315.352 116.301 313.122 C 119.567 262.218 143.463 216.89 179.712 185.423 C 114.238 213.924 68.412 279.222 68.412 355.137 C 68.412 457.242 151.308 540.137 253.412 540.137 C 299.756 540.137 342.143 523.059 374.612 494.852 C 352.025 504.684 327.1 510.137 300.912 510.137 C 281.401 510.137 262.591 507.11 244.933 501.489 C 239.448 508.375 230.991 512.78 221.512 512.78 C 204.954 512.78 191.512 499.337 191.512 482.78 C 191.512 480.094 191.866 477.49 192.53 475.012 Z " fill="rgb(209,209,209)"/><circle vector-effect="non-scaling-stroke" cx="120.91199999999998" cy="342.78" r="25" fill="rgb(209,209,209)"/><circle vector-effect="non-scaling-stroke" cx="221.511947011215" cy="482.78" r="25" fill="rgb(209,209,209)"/><g><path d=" M 409.624 404.354 C 414.794 409.231 410.266 422.438 399.52 433.827 C 388.774 445.217 375.853 450.504 370.684 445.627 C 365.515 440.75 370.042 427.543 380.788 416.154 C 391.534 404.764 404.455 399.477 409.624 404.354 Z " fill="rgb(185,185,185)"/><path d=" M 411.14 399.933 C 416.309 404.81 411.782 418.017 401.036 429.406 C 390.29 440.796 377.369 446.083 372.2 441.206 C 367.03 436.329 371.558 423.122 382.304 411.733 C 393.05 400.343 405.971 395.056 411.14 399.933 Z " fill="rgb(209,209,209)"/></g><g><path d=" M 289.087 219.758 C 293.086 210.3 311.689 209.115 330.604 217.112 C 349.519 225.11 361.63 239.281 357.631 248.738 C 353.632 258.196 335.029 259.382 316.114 251.384 C 297.199 243.387 285.088 229.216 289.087 219.758 Z " fill="rgb(185,185,185)"/><path d=" M 283.193 220.155 C 287.192 210.697 305.795 209.512 324.71 217.509 C 343.625 225.506 355.736 239.678 351.737 249.135 C 347.738 258.593 329.135 259.778 310.22 251.781 C 291.305 243.784 279.194 229.613 283.193 220.155 Z " fill="rgb(209,209,209)"/></g></g><clipPath id="_clipPath_fpChEoaNIne1M6LTyF8OPZJUi1LqBpRl"><path d=" M 492.394 36.382 C 494.345 35.485 496.729 35.993 498.128 37.746 L 499.602 39.595 C 501.248 41.658 500.909 44.669 498.846 46.314 L 477.111 63.653 C 478.713 63.448 480.381 64.059 481.461 65.413 L 482.936 67.262 C 483.878 68.443 484.17 69.935 483.859 71.303 L 509.742 50.657 C 511.805 49.011 514.815 49.35 516.461 51.413 L 517.936 53.262 C 519.581 55.325 519.242 58.335 517.18 59.981 L 511.548 64.473 C 513.418 64.404 515.295 65.191 516.551 66.765 L 521.054 72.41 C 523.154 75.043 522.722 78.885 520.089 80.985 L 505.824 92.365 C 507.511 92.044 509.316 92.645 510.461 94.08 L 511.936 95.928 C 513.581 97.991 513.242 101.002 511.18 102.648 L 483.151 125.006 C 474.06 144.978 453.648 158.908 429.95 158.908 C 397.805 158.908 371.707 133.275 371.707 101.703 C 371.707 75.29 389.972 53.034 414.763 46.466 L 461.742 8.99 C 463.805 7.345 466.815 7.683 468.461 9.746 L 469.936 11.595 C 471.581 13.658 471.242 16.669 469.18 18.314 L 459.928 25.694 C 461.02 25.896 462.048 26.477 462.794 27.413 L 464.269 29.262 C 465.505 30.811 465.622 32.896 464.728 34.535 L 506.027 1.591 C 509.174 -0.919 513.767 -0.402 516.277 2.744 L 518.839 5.956 C 521.35 9.103 520.833 13.696 517.686 16.207 L 492.394 36.382 Z " fill="rgb(255,255,255)"/></clipPath><g clip-path="url(#_clipPath_fpChEoaNIne1M6LTyF8OPZJUi1LqBpRl)"><g><linearGradient id="_lgradient_0" x1="0.14261107116200655" y1="0.7793287899503092" x2="0.9141106631595861" y2="0.14076333098870075" gradientTransform="matrix(129.463,0,0,162.961,430.526,-36.117)" gradientUnits="userSpaceOnUse"><stop offset="0%" stop-opacity="1" style="stop-color:rgb(255,149,0)"/><stop offset="61.96723337790605%" stop-opacity="1" style="stop-color:rgb(170,35,17)"/><stop offset="100%" stop-opacity="1" style="stop-color:rgb(0,0,0)"/></linearGradient><path d=" M 433.656 15.883 Q 424.989 44.216 440.322 48.216 Q 455.656 52.216 470.656 67.549 Q 461.656 123.216 479.656 126.549 Q 497.656 129.883 559.989 95.549 L 558.989 3.549 L 467.989 -36.117 L 433.656 15.883 Z " fill="url(#_lgradient_0)"/></g></g><g><circle vector-effect="non-scaling-stroke" cx="430.912" cy="102.78" r="50" fill="rgb(235,235,235)"/><path d=" M 421.686 138.938 C 413.405 135.486 406.252 129.864 400.935 122.785 C 400.928 122.786 400.92 122.786 400.912 122.786 C 392.633 122.786 385.912 116.064 385.912 107.786 C 385.912 103.284 387.899 99.244 391.046 96.497 C 390.958 95.269 390.912 94.03 390.912 92.78 C 390.912 81.53 394.635 71.143 400.923 62.791 C 388.773 71.909 380.912 86.434 380.912 102.78 C 380.912 130.376 403.316 152.78 430.912 152.78 L 430.912 152.78 C 447.258 152.78 461.783 144.919 470.901 132.769 C 462.549 139.057 452.162 142.78 440.912 142.78 L 440.912 142.78 L 440.912 142.78 C 440.912 148.299 436.431 152.78 430.912 152.78 L 430.912 152.78 C 425.393 152.78 420.912 148.299 420.912 142.78 C 420.912 141.418 421.185 140.119 421.686 138.938 Z " fill-rule="evenodd" fill="rgb(209,209,209)"/><circle vector-effect="non-scaling-stroke" cx="400.912" cy="107.78559734477997" r="10" fill="rgb(209,209,209)"/><path d=" M 423.306 142.393 C 423.213 138.225 426.523 134.766 430.691 134.674 C 434.859 134.581 438.318 137.891 438.41 142.059 C 438.502 146.227 435.193 149.686 431.025 149.778 C 426.857 149.87 423.398 146.561 423.306 142.393 Z " fill="rgb(209,209,209)"/><g><path d=" M 421.557 68.883 C 423.789 63.604 434.173 62.942 444.732 67.406 C 455.291 71.87 462.051 79.781 459.819 85.06 C 457.587 90.34 447.202 91.002 436.644 86.537 C 426.085 82.073 419.324 74.162 421.557 68.883 Z " fill="rgb(185,185,185)"/><path d=" M 418.08 69.105 C 420.312 63.825 430.697 63.163 441.256 67.628 C 451.815 72.092 458.575 80.002 456.343 85.282 C 454.111 90.561 443.726 91.223 433.167 86.759 C 422.608 82.295 415.848 74.384 418.08 69.105 Z " fill="rgb(209,209,209)"/></g><path d=" M 381.502 91.959 Q 373.084 100.585 376.168 103.293 L 379.835 117.626 L 385.168 121.626 Q 389.92 83.334 381.502 91.959 Z " fill="rgb(209,209,209)"/><path d=" M 442.077 149.501 Q 450.204 153.166 451.617 150.51 L 461.616 144.867 L 463.55 140.428 Q 433.949 145.835 442.077 149.501 Z " fill="rgb(209,209,209)"/><path d=" M 478.332 85.87 Q 479.94 77.1 477.023 76.365 L 469.145 68.014 L 464.371 67.201 Q 476.724 94.64 478.332 85.87 Z " fill="rgb(235,235,235)"/></g></g></svg>