<?xml version="1.0" standalone="no"?><!-- Generator: Gravit.io --><svg xmlns="http://www.w3.org/2000/svg" xmlns:xlink="http://www.w3.org/1999/xlink" style="isolation:isolate" viewBox="0 0 230 230" width="230" height="230"><defs><clipPath id="_clipPath_gbhb2rJYNxPOgm6dPwKEkSvNk3DjyO7X"><rect width="230" height="230"/></clipPath></defs><g clip-path="url(#_clipPath_gbhb2rJYNxPOgm6dPwKEkSvNk3DjyO7X)"><clipPath id="_clipPath_xf3stjHjrS7fYFaz2mN8jXYZF77ahe3T"><rect x="0" y="0" width="230" height="230" transform="matrix(1,0,0,1,0,0)" fill="rgb(255,255,255)"/></clipPath><g clip-path="url(#_clipPath_xf3stjHjrS7fYFaz2mN8jXYZF77ahe3T)"><g><g><g><path d=" M 7.022 2 L 222.978 2 C 225.75 2 228 4.25 228 7.022 L 228 222.978 C 228 225.75 225.75 228 222.978 228 L 7.022 228 C 4.25 228 2 225.75 2 222.978 L 2 7.022 C 2 4.25 4.25 2 7.022 2 Z " fill="rgb(255,255,255)" fill-opacity="0.7" vector-effect="non-scaling-stroke" stroke-width="1" stroke="rgb(135,149,161)" stroke-linejoin="miter" stroke-linecap="butt" stroke-miterlimit="10"/><path d=" M 7.022 2 L 222.978 2 C 225.75 2 228 4.25 228 7.022 L 228 222.978 C 228 225.75 225.75 228 222.978 228 L 7.022 228 C 4.25 228 2 225.75 2 222.978 L 2 7.022 C 2 4.25 4.25 2 7.022 2 Z " fill="none" vector-effect="non-scaling-stroke" stroke-width="3" stroke="rgb(135,149,161)" stroke-linejoin="miter" stroke-linecap="square" stroke-miterlimit="2"/><path d=" M 7.022 2 L 222.978 2 C 225.75 2 228 4.25 228 7.022 L 228 25.205 C 228 25.205 228 25.205 228 25.205 L 2 25.205 C 2 25.205 2 25.205 2 25.205 L 2 7.022 C 2 4.25 4.25 2 7.022 2 Z " fill="rgb(235,235,235)" fill-opacity="0.8" vector-effect="non-scaling-stroke" stroke-width="3" stroke="rgb(135,149,161)" stroke-opacity="100" stroke-linejoin="miter" stroke-linecap="square" stroke-miterlimit="3"/><ellipse vector-effect="non-scaling-stroke" cx="11" cy="13.602678571428552" rx="4.000000000000011" ry="4.035714285714295" fill="rgb(135,149,161)"/><ellipse vector-effect="non-scaling-stroke" cx="22" cy="13.602678571428573" rx="4.000000000000011" ry="4.035714285714295" fill="rgb(135,149,161)"/><ellipse vector-effect="non-scaling-stroke" cx="33" cy="13.602678571428573" rx="4.000000000000007" ry="4.035714285714295" fill="rgb(135,149,161)"/><path d=" M 45.964 11.585 L 217.036 11.585 C 217.568 11.585 218 12.017 218 12.549 L 218 14.656 C 218 15.188 217.568 15.621 217.036 15.621 L 45.964 15.621 C 45.432 15.621 45 15.188 45 14.656 L 45 12.549 C 45 12.017 45.432 11.585 45.964 11.585 Z " fill="rgb(79,136,177)" vector-effect="non-scaling-stroke" stroke-width="1" stroke="rgb(135,149,161)" stroke-linejoin="miter" stroke-linecap="square" stroke-miterlimit="2"/><path d=" M 45.964 11.585 L 217.036 11.585 C 217.568 11.585 218 12.017 218 12.549 L 218 14.656 C 218 15.188 217.568 15.621 217.036 15.621 L 45.964 15.621 C 45.432 15.621 45 15.188 45 14.656 L 45 12.549 C 45 12.017 45.432 11.585 45.964 11.585 Z " fill="rgb(135,149,161)" vector-effect="non-scaling-stroke" stroke-width="1" stroke="rgb(135,149,161)" stroke-linejoin="miter" stroke-linecap="square" stroke-miterlimit="2"/></g><g><ellipse vector-effect="non-scaling-stroke" cx="70.46415615850786" cy="112.59883376550489" rx="11.128096580338607" ry="11.3786660950895" fill="rgb(135,149,161)"/><clipPath id="_clipPath_tz13Fh7Zwo0r2S6d2IdEi8Y3pC1PbIVc"><ellipse vector-effect="non-scaling-stroke" cx="70.46415615850786" cy="112.59883376550489" rx="11.128096580338607" ry="11.3786660950895" fill="rgb(255,255,255)"/></clipPath><g clip-path="url(#_clipPath_tz13Fh7Zwo0r2S6d2IdEi8Y3pC1PbIVc)"><g><g><ellipse vector-effect="non-scaling-stroke" cx="65.63074047209814" cy="118.60949127088438" rx="4.833415686409708" ry="4.95217693839443" fill="rgb(255,255,255)"/><ellipse vector-effect="non-scaling-stroke" cx="69.63985270811246" cy="110.6708870184964" rx="2.4354420125320217" ry="2.494989907893384" fill="rgb(255,255,255)"/></g></g></g><ellipse vector-effect="non-scaling-stroke" cx="158.9643720600562" cy="112.59883376550489" rx="11.128096580338621" ry="11.3786660950895" fill="rgb(135,149,161)"/><clipPath id="_clipPath_qIJzms4diee8pFr0CNET32ssy27Ctq0A"><ellipse vector-effect="non-scaling-stroke" cx="158.9643720600562" cy="112.59883376550489" rx="11.128096580338621" ry="11.3786660950895" fill="rgb(255,255,255)"/></clipPath><g clip-path="url(#_clipPath_qIJzms4diee8pFr0CNET32ssy27Ctq0A)"><g><g><ellipse vector-effect="non-scaling-stroke" cx="154.1309563736465" cy="118.60949127088438" rx="4.833415686409694" ry="4.95217693839443" fill="rgb(255,255,255)"/><ellipse vector-effect="non-scaling-stroke" cx="158.14006860966074" cy="110.6708870184964" rx="2.4354420125320075" ry="2.494989907893384" fill="rgb(255,255,255)"/></g></g></g><path d=" M 80.168 67.349 L 80.243 69.579 L 78.745 71.167 L 65.069 77.442 L 62.933 77.48 L 61.359 75.968 L 61.284 73.737 L 62.783 72.15 L 76.459 65.874 L 78.595 65.837 L 80.168 67.349 L 80.168 67.349 Z  M 152.932 65.912 L 159.789 69.031 L 166.645 72.15 L 168.107 73.737 L 168.069 75.93 L 166.496 77.442 L 164.322 77.442 L 150.646 71.167 L 149.148 69.579 L 149.223 67.349 L 150.796 65.837 L 152.932 65.874 L 152.932 65.912 L 152.932 65.912 Z  M 114.564 125.452 C 114.115 125.452 113.703 125.527 113.253 125.603 C 111.348 126.138 109.649 127.246 108.382 128.778 C 107.548 129.693 106.831 130.709 106.246 131.803 C 105.123 133.753 104.278 135.852 103.736 138.04 C 102.416 143.107 102.098 148.386 102.799 153.577 C 103.267 156.961 104.253 160.252 105.722 163.33 C 106.396 164.643 107.2 165.884 108.12 167.035 C 109.5 168.776 111.409 170.011 113.553 170.551 C 114.553 170.72 115.579 170.655 116.55 170.362 C 118.499 169.795 120.147 168.471 121.421 166.884 C 121.941 166.259 122.405 165.588 122.807 164.88 C 123.533 163.706 124.148 162.466 124.643 161.176 C 125.618 158.756 126.217 156.148 126.592 153.577 C 127.288 148.386 126.97 143.108 125.655 138.04 C 124.921 135.373 123.811 132.827 122.358 130.48 C 121.945 129.884 121.494 129.316 121.009 128.778 C 119.752 127.235 118.05 126.124 116.138 125.603 C 115.719 125.514 115.292 125.463 114.864 125.452 L 114.564 125.452 L 114.564 125.452 Z  M 115.126 122.579 C 116.218 122.624 117.295 122.854 118.311 123.259 C 120.958 124.413 123.184 126.368 124.681 128.854 C 125.333 129.815 125.909 130.826 126.404 131.878 C 128.73 137.051 129.882 142.682 129.777 148.36 C 129.777 150.326 129.627 152.33 129.327 154.258 C 128.801 157.949 127.701 161.534 126.067 164.88 C 125.574 165.833 125.023 166.755 124.419 167.64 C 122.838 170.025 120.578 171.871 117.937 172.932 C 115.851 173.67 113.578 173.67 111.492 172.932 C 108.914 171.906 106.697 170.129 105.122 167.829 C 104.033 166.338 103.139 164.712 102.462 162.99 C 101.296 160.208 100.49 157.286 100.064 154.295 C 99.21 148.317 99.618 142.223 101.263 136.415 C 102.094 133.673 103.305 131.064 104.86 128.665 L 105.535 127.72 C 107.312 125.342 109.813 123.616 112.654 122.806 C 113.465 122.626 114.296 122.549 115.126 122.579 L 115.126 122.579 L 115.126 122.579 Z " fill="rgb(135,149,161)"/><ellipse vector-effect="non-scaling-stroke" cx="114.71426410928211" cy="148.0579327595048" rx="13.675943608833649" ry="24.042630021518022" fill="rgb(135,149,161)" stroke-width="2.922" stroke="rgb(135,149,161)" stroke-opacity="100" stroke-linejoin="round" stroke-linecap="butt" stroke-miterlimit="1.41"/><clipPath id="_clipPath_4Lvo02MVJvTBNteiuu0KMscEJBAAdT1O"><ellipse vector-effect="non-scaling-stroke" cx="114.71426410928211" cy="148.0201298821124" rx="13.675943608833641" ry="24.042630021518022" fill="rgb(255,255,255)"/></clipPath><g clip-path="url(#_clipPath_4Lvo02MVJvTBNteiuu0KMscEJBAAdT1O)"><g><g><ellipse vector-effect="non-scaling-stroke" cx="114.6767957706278" cy="167.45080886176694" rx="11.390374950918982" ry="14.138276144729161" fill="rgb(223,174,213)"/></g></g></g></g></g></g></g></g></svg>